<?xml version="1.0"?>
<COLLADA xmlns="http://www.collada.org/2005/11/COLLADASchema" version="1.4.1">
  <asset>
    <contributor>
      <author>Assimp</author>
      <authoring_tool>Assimp Exporter</authoring_tool>
    </contributor>
    <created>2019-05-01T15:08:31</created>
    <modified>2019-05-01T15:08:31</modified>
    <unit name="meter" meter="0.01" />
    <up_axis>Y_UP</up_axis>
  </asset>
  <library_effects>
    <effect id="Material__25-fx" name="Material__25">
      <profile_COMMON>
        <technique sid="standard">
          <phong>
            <emission>
              <color sid="emission">0   0   0   1</color>
            </emission>
            <ambient>
              <color sid="ambient">0   0   0   1</color>
            </ambient>
            <diffuse>
              <color sid="diffuse">0.6   0.6   0.6   1</color>
            </diffuse>
            <specular>
              <color sid="specular">0   0   0   1</color>
            </specular>
            <shininess>
              <float sid="shininess">0</float>
            </shininess>
            <transparency>
              <float sid="transparency">0</float>
            </transparency>
            <index_of_refraction>
              <float sid="index_of_refraction">1</float>
            </index_of_refraction>
          </phong>
        </technique>
      </profile_COMMON>
    </effect>
  </library_effects>
  <library_materials>
    <material id="Material__25" name="Material__25">
      <instance_effect url="#Material__25-fx"/>
    </material>
  </library_materials>
  <library_geometries>
    <geometry id="meshId0" name="meshId0_name" >
      <mesh>
        <source id="meshId0-positions" name="meshId0-positions">
          <float_array id="meshId0-positions-array" count="708"> -0.658622 0.155544 0.243111 -0.658622 0.155544 0.313755 -0.558361 0.155544 0.313755 -0.558361 0.155544 0.243111 -0.658622 -0.0861756 0.243111 -0.658622 -0.0861756 0.313755 -0.658622 -0.0312448 0.313755 -0.658622 -0.0312448 0.243111 -0.658622 -0.0861756 0.354564 -0.558361 -0.0861756 0.354564 -0.558361 -0.0601928 0.338304 -0.658622 -0.0601928 0.338304 -0.558361 -0.0861756 0.313755 -0.558361 -0.0861756 0.243111 -0.558361 -0.0312448 0.243111 -0.558361 -0.0312448 0.313755 -0.558361 -0.0861756 0.243111 -0.658622 -0.0861756 0.243111 -0.658622 -0.0312448 0.243111 -0.558361 -0.0312448 0.243111 -0.658622 0.111575 0.243111 -0.658622 0.111575 0.313755 -0.658622 0.111575 0.694624 -0.558361 0.111575 0.694624 -0.558361 0.155544 0.694624 -0.658622 0.155544 0.694624 -0.558361 0.111575 0.313755 -0.558361 0.111575 0.243111 -0.558361 0.111575 0.243111 -0.658622 0.111575 0.243111 -0.658622 0.111575 0.313755 -0.558361 0.111575 0.313755 -0.558361 0.111575 0.694624 -0.658622 0.111575 0.694624 -0.558361 -0.0312448 0.313755 -0.658622 -0.0312448 0.313755 -0.658622 -0.0861756 0.313755 -0.558361 -0.0861756 0.313755 -0.558361 -0.0601928 0.338304 -0.558361 -0.0861756 0.354564 -0.658622 -0.0861756 0.354564 -0.658622 -0.0601928 0.338304 -0.656288 0.520955 0.0785011 -0.560694 0.520955 0.0785011 -0.560694 0.520955 -0.0537703 -0.656288 0.520955 -0.0537703 -0.656288 -0.0960315 0.0785011 -0.560694 -0.0960315 0.0785011 -0.560694 0.444526 0.0785011 -0.656288 0.444526 0.0785011 -0.560694 -0.0960315 0.0785011 -0.560694 -0.0960315 -0.0537703 -0.560694 0.444526 -0.0537703 -0.560694 0.444526 0.0785011 -0.560694 -0.0960315 -0.0537703 -0.656288 -0.0960315 -0.0537703 -0.656288 0.444526 -0.0537703 -0.560694 0.444526 -0.0537703 -0.656288 -0.0960315 -0.0537703 -0.656288 -0.0960315 0.0785011 -0.656288 0.444526 0.0785011 -0.656288 0.444526 -0.0537703 -0.0453542 0.444526 0.0785011 -0.0453542 0.444526 -0.0537703 -0.0453542 0.520955 -0.0537703 -0.0453542 0.520955 0.0785011 -0.0453542 0.444526 -0.0537703 -0.0453542 0.444526 0.0785011 -0.395428 -0.397032 0.277382 0.0726131 -0.397032 0.277382 0.0726131 -0.397032 -0.27737 -0.395428 -0.397032 -0.27737 -0.72415 -0.520954 1 0.72415 -0.520954 1 0.72415 -0.0781182 1 -0.72415 -0.0781182 1 0.72415 -0.520954 1 0.72415 -0.520954 -1 0.72415 -0.0781182 -1 0.72415 -0.520954 -1 -0.72415 -0.520954 -1 -0.72415 -0.0781182 -1 -0.72415 -0.520954 -1 -0.72415 -0.520954 1 0.641523 -0.0781182 0.933949 -0.395428 -0.0781182 0.933949 0.641523 -0.0781182 -0.933938 -0.395428 -0.0781182 -0.933938 -0.395428 -0.0781182 0.933949 -0.395428 -0.397032 0.277382 -0.395428 -0.397032 -0.27737 -0.395428 -0.0781182 -0.933938 -0.224317 -0.376482 0.0378496 -0.0835141 -0.376482 0.0378496 -0.077705 -0.376482 0.0086831 -0.230113 -0.376482 0.0086831 -0.230113 -0.376482 0.0086831 -0.224317 -0.376482 -0.0204713 -0.224317 -0.403959 -0.0204713 -0.230113 -0.403959 0.0086831 -0.207801 -0.376482 -0.0451906 -0.207801 -0.403959 -0.0451906 -0.18307 -0.376482 -0.0617181 -0.18307 -0.403959 -0.0617181 -0.153915 -0.376482 -0.0675149 -0.153915 -0.403959 -0.0675149 -0.153915 -0.376482 -0.0675149 -0.124748 -0.376482 -0.0617181 -0.124748 -0.403959 -0.0617181 -0.153915 -0.403959 -0.0675149 -0.10003 -0.376482 -0.0451906 -0.10003 -0.403959 -0.0451906 -0.0835141 -0.376482 -0.0204713 -0.0835141 -0.403959 -0.0204713 -0.077705 -0.376482 0.0086831 -0.077705 -0.403959 0.0086831 -0.0835141 -0.376482 0.0378496 -0.0835141 -0.403959 0.0378496 -0.10003 -0.376482 0.0625688 -0.10003 -0.403959 0.0625688 -0.124748 -0.376482 0.0790964 -0.124748 -0.403959 0.0790964 -0.153915 -0.376482 0.0848931 -0.153915 -0.403959 0.0848931 -0.153915 -0.376482 0.0848931 -0.18307 -0.376482 0.0790964 -0.18307 -0.403959 0.0790964 -0.153915 -0.403959 0.0848931 -0.207801 -0.376482 0.0625688 -0.207801 -0.403959 0.0625688 -0.224317 -0.376482 0.0378496 -0.224317 -0.403959 0.0378496 -0.0835141 -0.376482 -0.0204713 -0.224317 -0.376482 -0.0204713 -0.207801 -0.376482 0.0625688 -0.10003 -0.376482 0.0625688 -0.18307 -0.376482 0.0790964 -0.124748 -0.376482 0.0790964 -0.153915 -0.376482 0.0848931 -0.10003 -0.376482 -0.0451906 -0.207801 -0.376482 -0.0451906 -0.124748 -0.376482 -0.0617181 -0.18307 -0.376482 -0.0617181 -0.153915 -0.376482 -0.0675149 -0.5631 0.155544 -0.229536 -0.5631 0.155544 -0.300181 -0.663349 0.155544 -0.300181 -0.663349 0.155544 -0.229536 -0.5631 -0.0861756 -0.229536 -0.5631 -0.0861756 -0.300181 -0.5631 -0.0312448 -0.300181 -0.5631 -0.0312448 -0.229536 -0.5631 -0.0861756 -0.34099 -0.663349 -0.0861756 -0.34099 -0.663349 -0.0601928 -0.324729 -0.5631 -0.0601928 -0.324729 -0.663349 -0.0861756 -0.300181 -0.663349 -0.0861756 -0.229536 -0.663349 -0.0312448 -0.229536 -0.663349 -0.0312448 -0.300181 -0.663349 -0.0861756 -0.229536 -0.5631 -0.0861756 -0.229536 -0.5631 -0.0312448 -0.229536 -0.663349 -0.0312448 -0.229536 -0.5631 0.111575 -0.229536 -0.5631 0.111575 -0.300181 -0.5631 0.111575 -0.681038 -0.663349 0.111575 -0.681038 -0.663349 0.155544 -0.681038 -0.5631 0.155544 -0.681038 -0.663349 0.111575 -0.300181 -0.663349 0.111575 -0.229536 -0.663349 0.111575 -0.229536 -0.5631 0.111575 -0.229536 -0.5631 0.111575 -0.300181 -0.663349 0.111575 -0.300181 -0.663349 0.111575 -0.681038 -0.5631 0.111575 -0.681038 -0.663349 -0.0312448 -0.300181 -0.5631 -0.0312448 -0.300181 -0.5631 -0.0861756 -0.300181 -0.663349 -0.0861756 -0.300181 -0.663349 -0.0601928 -0.324729 -0.663349 -0.0861756 -0.34099 -0.5631 -0.0861756 -0.34099 -0.5631 -0.0601928 -0.324729 -0.0607032 0.381173 0.0292091 -0.159797 0.381173 0.0292091 -0.163881 0.381173 0.0086831 -0.0566199 0.381173 0.0086831 -0.0566199 0.381173 0.0086831 -0.0607032 0.381173 -0.0118309 -0.0607032 0.444161 -0.0118309 -0.0566199 0.444161 0.0086831 -0.0723335 0.381173 -0.0292337 -0.0723335 0.444161 -0.0292337 -0.0897242 0.381173 -0.0408639 -0.0897242 0.444161 -0.0408639 -0.11025 0.381173 -0.0449472 -0.11025 0.444161 -0.0449472 -0.11025 0.381173 -0.0449472 -0.130776 0.381173 -0.0408639 -0.130776 0.444161 -0.0408639 -0.11025 0.444161 -0.0449472 -0.148179 0.381173 -0.0292337 -0.148179 0.444161 -0.0292337 -0.159797 0.381173 -0.0118309 -0.159797 0.444161 -0.0118309 -0.163881 0.381173 0.0086831 -0.163881 0.444161 0.0086831 -0.159797 0.381173 0.0292091 -0.159797 0.444161 0.0292091 -0.148179 0.381173 0.046612 -0.148179 0.444161 0.046612 -0.130776 0.381173 0.0582421 -0.130776 0.444161 0.0582421 -0.11025 0.381173 0.0623254 -0.11025 0.444161 0.0623254 -0.0897242 0.381173 0.0582421 -0.0897242 0.444161 0.0582421 -0.0723335 0.381173 0.046612 -0.0723335 0.444161 0.046612 -0.0607032 0.381173 0.0292091 -0.0607032 0.444161 0.0292091 -0.159797 0.381173 -0.0118309 -0.0607032 0.381173 -0.0118309 -0.0723335 0.381173 0.046612 -0.148179 0.381173 0.046612 -0.0897242 0.381173 0.0582421 -0.130776 0.381173 0.0582421 -0.11025 0.381173 0.0623254 -0.148179 0.381173 -0.0292337 -0.0723335 0.381173 -0.0292337 -0.130776 0.381173 -0.0408639 -0.0897242 0.381173 -0.0408639 -0.11025 0.381173 -0.0449472 </float_array>
          <technique_common>
            <accessor count="236" offset="0" source="#meshId0-positions-array" stride="3">
              <param name="X" type="float" />
              <param name="Y" type="float" />
              <param name="Z" type="float" />
            </accessor>
          </technique_common>
        </source>
        <source id="meshId0-normals" name="meshId0-normals">
          <float_array id="meshId0-normals-array" count="708"> -0.5774 0.5774 -0.5774 -0.7071 0.7071 -0 0.7071 0.7071 0 0.5774 0.5774 -0.5774 -0.7071 -0 -0.7071 -0.8944 -0.4472 -0 -0.7779 0.1807 0.6018 -0.7071 -0 -0.7071 -0.5572 -0.4403 0.7041 0.5572 -0.4404 0.704 0.6928 0.3572 0.6265 -0.6928 0.3572 0.6264 0.8944 -0.4472 0 0.7071 -0 -0.7071 0.7071 -0 -0.7071 0.7779 0.1807 0.6018 0.7071 -0 -0.7071 -0.7071 -0 -0.7071 -0.7071 -0 -0.7071 0.7071 -0 -0.7071 -0.7071 -0 -0.7071 -0.9045 -0.3015 0.3015 -0.5774 -0.5774 0.5774 0.5774 -0.5774 0.5774 0.5774 0.5774 0.5774 -0.5774 0.5774 0.5774 0.9045 -0.3015 0.3015 0.7071 -0 -0.7071 0.7071 -0 -0.7071 -0.7071 -0 -0.7071 -0.9045 -0.3015 0.3015 0.9045 -0.3015 0.3015 0.5774 -0.5774 0.5774 -0.5774 -0.5774 0.5774 0.7779 0.1807 0.6018 -0.7779 0.1807 0.6018 -0.8944 -0.4472 -0 0.8944 -0.4472 0 0.6928 0.3572 0.6265 0.5572 -0.4404 0.704 -0.5572 -0.4403 0.7041 -0.6928 0.3572 0.6264 -0.5774 0.5774 0.5774 0 0.7071 0.7071 0 0.7071 -0.7071 -0.5774 0.5774 -0.5774 -0.7071 0 0.7071 0.7071 0 0.7071 0.3015 -0.3015 0.9045 -0.7071 0 0.7071 0.7071 0 0.7071 0.7071 0 -0.7071 0.3015 -0.3015 -0.9045 0.3015 -0.3015 0.9045 0.7071 0 -0.7071 -0.7071 0 -0.7071 -0.7071 0 -0.7071 0.3015 -0.3015 -0.9045 -0.7071 0 -0.7071 -0.7071 0 0.7071 -0.7071 0 0.7071 -0.7071 0 -0.7071 0.5774 -0.5774 0.5774 0.5774 -0.5774 -0.5774 0.5774 0.5774 -0.5774 0.5774 0.5774 0.5774 0.5774 -0.5774 -0.5774 0.5774 -0.5774 0.5774 0.6426 0.7271 -0.2416 -0.2755 0.9308 -0.2402 -0.2755 0.9308 0.2402 0.6426 0.7271 0.2416 -0.7071 0 0.7071 0.7071 0 0.7071 0.5774 0.5774 0.5774 -0.5774 0.5774 0.5774 0.7071 0 0.7071 0.7071 0 -0.7071 0.5774 0.5774 -0.5774 0.7071 0 -0.7071 -0.7071 0 -0.7071 -0.5774 0.5774 -0.5774 -0.7071 0 -0.7071 -0.7071 0 0.7071 -0.09 0.9916 -0.0933 0.1056 0.9823 -0.1546 -0.09 0.9916 0.0933 0.1056 0.9823 0.1546 0.1056 0.9823 -0.1546 0.6426 0.7271 -0.2416 0.6426 0.7271 0.2416 0.1056 0.9823 0.1546 -0.6894 0.6657 0.2856 0.6894 0.6657 0.2856 0.7462 0.6657 -0 -0.7462 0.6658 0 -0.7462 0.6658 0 -0.6894 0.6658 -0.2856 -0.9239 -0 -0.3827 -1 -0 0 -0.5276 0.6657 -0.5276 -0.7071 -0 -0.7071 -0.2856 0.6658 -0.6894 -0.3827 -0 -0.9239 -0 0.6658 -0.7461 0 0 -1 -0 0.6658 -0.7461 0.2856 0.6658 -0.6894 0.3827 0 -0.9239 0 0 -1 0.5276 0.6657 -0.5276 0.7071 0 -0.7071 0.6894 0.6657 -0.2856 0.9239 0 -0.3827 0.7462 0.6657 -0 1 0 -0 0.6894 0.6657 0.2856 0.9239 0 0.3827 0.5276 0.6657 0.5276 0.7071 0 0.7071 0.2856 0.6658 0.6894 0.3827 0 0.9239 -0 0.6658 0.7462 -0 -0 1 -0 0.6658 0.7462 -0.2856 0.6657 0.6894 -0.3827 -0 0.9239 -0 -0 1 -0.5276 0.6657 0.5276 -0.7071 -0 0.7071 -0.6894 0.6657 0.2856 -0.9239 -0 0.3827 0.6894 0.6657 -0.2856 -0.6894 0.6658 -0.2856 -0.5276 0.6657 0.5276 0.5276 0.6657 0.5276 -0.2856 0.6657 0.6894 0.2856 0.6658 0.6894 -0 0.6658 0.7462 0.5276 0.6657 -0.5276 -0.5276 0.6657 -0.5276 0.2856 0.6658 -0.6894 -0.2856 0.6658 -0.6894 -0 0.6658 -0.7461 0.5774 0.5774 0.5774 0.7071 0.7071 0 -0.7071 0.7071 -0 -0.5774 0.5774 0.5774 0.7071 -0 0.7071 0.8944 -0.4472 0 0.7779 0.1807 -0.6018 0.7071 -0 0.7071 0.5572 -0.4403 -0.7041 -0.5572 -0.4404 -0.704 -0.6928 0.3572 -0.6265 0.6928 0.3572 -0.6264 -0.8944 -0.4472 -0 -0.7071 0 0.7071 -0.7071 0 0.7071 -0.7779 0.1807 -0.6018 -0.7071 0 0.7071 0.7071 -0 0.7071 0.7071 -0 0.7071 -0.7071 0 0.7071 0.7071 -0 0.7071 0.9045 -0.3015 -0.3015 0.5774 -0.5774 -0.5774 -0.5774 -0.5774 -0.5774 -0.5774 0.5774 -0.5774 0.5774 0.5774 -0.5774 -0.9045 -0.3015 -0.3015 -0.7071 0 0.7071 -0.7071 0 0.7071 0.7071 -0 0.7071 0.9045 -0.3015 -0.3015 -0.9045 -0.3015 -0.3015 -0.5774 -0.5774 -0.5774 0.5774 -0.5774 -0.5774 -0.7779 0.1807 -0.6018 0.7779 0.1807 -0.6018 0.8944 -0.4472 0 -0.8944 -0.4472 -0 -0.6928 0.3572 -0.6265 -0.5572 -0.4404 -0.704 0.5572 -0.4403 -0.7041 0.6928 0.3572 -0.6264 0.6894 -0.6657 0.2856 -0.6894 -0.6657 0.2856 -0.7462 -0.6657 -0 0.7462 -0.6658 0 0.7462 -0.6658 0 0.6894 -0.6658 -0.2856 0.9239 0 -0.3827 1 0 0 0.5276 -0.6657 -0.5276 0.7071 0 -0.7071 0.2856 -0.6658 -0.6894 0.3827 0 -0.9239 0 -0.6658 -0.7461 0 0 -1 0 -0.6658 -0.7461 -0.2856 -0.6658 -0.6894 -0.3827 0 -0.9239 0 0 -1 -0.5276 -0.6657 -0.5276 -0.7071 0 -0.7071 -0.6894 -0.6657 -0.2856 -0.9239 0 -0.3827 -0.7462 -0.6657 -0 -1 0 -0 -0.6894 -0.6657 0.2856 -0.9239 0 0.3827 -0.5276 -0.6657 0.5276 -0.7071 0 0.7071 -0.2856 -0.6658 0.6894 -0.3827 0 0.9239 0 -0.6658 0.7462 0 0 1 0.2856 -0.6657 0.6894 0.3827 0 0.9239 0.5276 -0.6657 0.5276 0.7071 0 0.7071 0.6894 -0.6657 0.2856 0.9239 0 0.3827 -0.6894 -0.6657 -0.2856 0.6894 -0.6658 -0.2856 0.5276 -0.6657 0.5276 -0.5276 -0.6657 0.5276 0.2856 -0.6657 0.6894 -0.2856 -0.6658 0.6894 0 -0.6658 0.7462 -0.5276 -0.6657 -0.5276 0.5276 -0.6657 -0.5276 -0.2856 -0.6658 -0.6894 0.2856 -0.6658 -0.6894 0 -0.6658 -0.7461 </float_array>
          <technique_common>
            <accessor count="236" offset="0" source="#meshId0-normals-array" stride="3">
              <param name="X" type="float" />
              <param name="Y" type="float" />
              <param name="Z" type="float" />
            </accessor>
          </technique_common>
        </source>
        <source id="meshId0-tangents" name="meshId0-tangents">
          <float_array id="meshId0-tangents-array" count="708"> 0.152441 -0.618498 -0.770858 -0.000739116 -0.000739103 -0.999999 -0.00156086 0.00156085 -0.999998 -0.156819 -0.615577 -0.772316 0.707079 -0.00643164 -0.707106 0.000833667 -0.00166746 -0.999998 -0.586369 0.13533 -0.798659 0.707092 -0.00151083 -0.70712 -0.0741366 0.870851 0.485924 0.0743644 0.870836 0.485917 0.0584792 0.838039 -0.542468 -0.0584366 0.838014 -0.54251 0 0 -1 -0.707093 0 -0.70712 -0.707093 0 -0.70712 0.586007 0.136893 -0.798659 0 -1 0 0 -1 0 -0.000740225 -0.999999 0.000740196 -0.000740225 -1 -0.000740196 0.707093 0 -0.70712 -0.285848 -0.0958462 -0.95347 -0.00078629 0.7075 0.706713 -0.00345212 0.705374 0.708827 0.151716 0.618979 -0.770614 -0.15571 0.616319 -0.771949 0.287073 -0.0921651 -0.953464 -0.707082 0.00573199 -0.707109 -0.000740225 -0.999999 -0.000740196 -0.00228921 -0.999995 0.00228913 -0.00036678 0.707656 0.706557 -0.000366662 0.706557 0.707656 0.408835 -0.407802 -0.816426 -0.407287 -0.409349 -0.816426 0.0233555 0.948778 -0.315079 -0.0245604 0.948279 -0.316486 0 0 1 0 0 1 0.550538 0.299247 -0.779332 0.552887 -0.435835 -0.710186 -0.552466 -0.436559 -0.710068 -0.558222 0.284162 -0.779513 -0.15433 0.61724 -0.77149 0 0.707107 -0.707107 0 -0.707107 -0.707107 0.15433 -0.61724 -0.77149 0 1 0 0 1 0 0.0953391 0.95347 0.286017 0 1 0 0.707093 0 -0.70712 -0.707093 0 -0.70712 -0.639554 0.639554 -0.426546 0.639554 -0.639554 -0.426546 0 -1 0 0 -1 0 0 -1 0 -0.0953391 -0.95347 0.286017 0.707093 0 -0.70712 -0.707093 0 -0.70712 -0.707093 0 -0.70712 0.707093 0 -0.70712 0.408319 -0.408319 -0.816426 -0.408319 0.408319 -0.816426 -0.15433 -0.61724 -0.77149 0.15433 0.61724 -0.77149 -0.408319 -0.816426 0.408319 0.408319 0.816426 0.408319 -0.102518 -0.230896 -0.967562 -0.00336617 -0.250803 -0.968032 -0.0964264 0.221852 -0.970301 0.0454594 0.278588 -0.959334 0.247992 0.936485 0.247983 0.064612 0.995817 -0.0646095 0.129025 0.633759 -0.762694 -0.0685982 0.670383 -0.738838 0.707093 0 -0.70712 -0.707093 0.00064283 -0.70712 -0.154143 -0.617364 -0.771429 -0.0117244 -0.999863 -0.011724 -0.172029 -0.969956 0.172023 0.0625775 -0.673815 -0.736246 0.707093 0 -0.70712 -0.707093 -0.000979236 -0.70712 -0.0944052 -0.101751 -0.99032 0.273545 -0.178168 -0.945214 0.0731654 0.100009 -0.992293 -0.323385 0.180944 -0.928806 -0.0165244 -0.153712 -0.987978 -0.159992 -0.18103 -0.970377 0.159992 0.18103 -0.970377 0.0165244 0.153712 -0.987978 0.193277 -0.21093 0.958203 -0.216389 -0.187007 0.95823 -0.0103284 0.0115766 0.99988 -0.0103351 -0.0115858 0.999879 -0.664715 -0.744845 -0.0579622 -0.585171 -0.744051 -0.322433 0.0222128 -0.998314 -0.0536254 0 -0.998899 -0.0469089 -0.414313 -0.743998 -0.524225 0.0384946 -0.998517 -0.0384946 -0.197304 -0.744668 -0.637605 0.0399859 -0.999063 -0.0165631 0.0578932 -0.744892 -0.664669 0.043561 -0.999051 0 0 -0.746144 -0.665785 0.254838 -0.746092 -0.615146 0 -1 0 0 -1 0 0.470693 -0.746255 -0.470693 0.00501298 -0.999975 0.00501302 0.626742 -0.745852 -0.225609 0.0124965 -0.999467 0.0301685 0.664698 -0.745115 0.0545921 0 -0.9992 0.0399878 0.598102 -0.745539 0.294016 -0.00841509 -0.999758 0.0203152 0.465375 -0.746234 0.475984 0 -1 0 0.254838 -0.746092 0.615146 0 -1 0 0 -0.746099 0.665835 0 -1 0 -0.0579918 -0.744843 0.664715 -0.322382 -0.744179 0.585036 -0.0536336 -0.998313 -0.0222163 -0.0502209 -0.998738 0 -0.524223 -0.743998 0.414315 -0.0384951 -0.998517 -0.0384951 -0.637469 -0.744797 0.197257 -0.0165627 -0.999063 -0.0399849 0.192698 0.211524 0.958188 -0.216964 0.186433 0.958212 0.308103 -0.42877 0.849252 -0.347616 -0.397449 0.849233 0.241927 -0.645981 0.724003 -0.29942 -0.621416 0.72401 -0.023647 -0.74603 0.665492 0.312313 0.425514 0.849352 -0.343641 0.400678 0.849334 0.241187 0.646329 0.723939 -0.300106 0.621104 0.723993 -0.020393 0.745928 0.665714 0.149815 0.620239 -0.769973 -0.00179606 0.00179606 -0.999997 -0.000974335 -0.00097433 -0.999999 -0.156783 0.6156 -0.772305 0.707093 0 -0.70712 0.00115479 0.00230975 -0.999997 -0.587174 -0.131841 -0.798652 0.707085 0.00491794 -0.707112 -0.0777074 -0.871787 0.483682 0.0708515 -0.8699 0.488113 0.0584791 -0.838039 -0.542468 -0.0584365 -0.838014 -0.54251 0.00090953 -0.0018192 -0.999998 -0.707079 -0.00642984 -0.707106 -0.707079 -0.00641772 -0.707106 0.585181 -0.140421 -0.798652 0 1 0 -0.00222529 0.999995 0.00222521 -0.00265436 0.999993 0.00265425 -0.00175982 0.999997 -0.00175976 0.707079 0.00642584 -0.707106 -0.284788 0.0990192 -0.953463 -0.00489049 -0.709541 0.704648 -0.00229753 -0.705954 0.708253 0.152634 -0.618369 -0.770923 -0.15728 -0.615268 -0.772469 0.286355 0.0943242 -0.953469 -0.707093 -0.000686254 -0.70712 -0.00388611 0.999985 -0.00388596 -0.003668 0.999987 0.00366786 -0.000654357 -0.708087 0.706125 -0.000662537 -0.706113 0.708099 0.410385 0.40625 -0.816422 -0.406771 0.409864 -0.816424 0.0227543 -0.949026 -0.314376 -0.0251629 -0.948028 -0.317189 -0.00207384 -0.00414642 0.999989 -0.00207384 0.00414642 0.999989 0.550538 -0.299247 -0.779332 0.552887 0.435835 -0.710186 -0.547125 0.443275 -0.710043 -0.55785 -0.284888 -0.779514 0.121523 -0.282393 -0.95157 -0.28053 -0.118145 -0.952546 -0.0694341 0.0778253 -0.994546 -0.0694677 -0.0778747 -0.99454 -0.0280308 -0.0314096 0.999113 0.357687 -0.0299993 0.93336 0.382114 -0.0548489 0.922486 0 -0.054854 0.998494 0.687532 -0.0301205 0.725529 0.706043 -0.0548402 0.706043 0.912821 -0.0301158 0.407249 0.922341 -0.0576345 0.382054 0.98507 -0.128443 0.114626 0.998088 -0.061806 0 0.996301 0.0641092 -0.0572208 0.933775 -0.0314303 -0.356477 0.922487 -0.054834 -0.382115 0.998418 -0.0562355 0 0.725399 -0.0299016 -0.687679 0.706043 -0.0548405 -0.706043 0.407099 -0.0299417 -0.912893 0.382114 -0.0548553 -0.922486 0.0268252 -0.0300707 -0.999188 0 -0.054854 -0.998494 -0.355954 -0.0320604 -0.933953 -0.38204 -0.0582559 -0.922308 -0.686262 -0.0320157 -0.726649 -0.705906 -0.0582566 -0.705906 -0.912858 -0.0300213 -0.407173 -0.922487 -0.054834 -0.382114 -0.99919 -0.0300242 -0.0267944 -0.998495 -0.0548379 0 -0.933342 -0.0299502 0.357738 -0.922486 -0.0548491 0.382114 -0.725426 -0.0299481 0.687648 -0.705932 -0.0576255 0.705932 -0.409108 -0.0324445 0.911909 -0.382023 -0.0590166 0.922266 0.121607 0.282312 -0.951584 -0.280512 0.118182 -0.952547 0.203729 -0.503736 -0.839491 -0.432483 -0.32401 -0.841413 0.0872171 -0.698321 -0.710452 -0.439108 -0.548552 -0.71153 -0.210863 -0.72946 -0.650711 0.20337 0.503975 -0.839434 -0.432729 0.323783 -0.841374 0.0885016 0.698018 -0.71059 -0.438192 0.549096 -0.711675 -0.210863 0.729308 -0.650882 </float_array>
          <technique_common>
            <accessor count="236" offset="0" source="#meshId0-tangents-array" stride="3">
              <param name="X" type="float" />
              <param name="Y" type="float" />
              <param name="Z" type="float" />
            </accessor>
          </technique_common>
        </source>
        <source id="meshId0-bitangents" name="meshId0-bitangents">
          <float_array id="meshId0-bitangents-array" count="708"> -0.802214 -0.533113 0.269101 -0.7071 -0.7071 0.00104525 -0.707098 0.707098 0.00220736 -0.80137 0.536483 -0.264887 -0.00454782 -0.99997 0.00454782 0.447199 -0.894398 0.00186419 -0.22576 -0.974154 0.000683382 -0.00106831 -0.999989 0.00106831 -0.827119 0.218557 -0.517881 -0.827066 -0.2184 0.51798 -0.718801 0.412459 0.559704 -0.718717 -0.412456 -0.559703 0.4472 0.8944 0 0 0.99999 0 0 0.99999 0 -0.2267 0.973936 0.000597738 -0.7071 -0 -0.7071 -0.7071 0 0.7071 -0.7071 0.00104681 0.7071 -0.7071 0.00104681 -0.7071 0 -0.99999 0 0.316369 -0.948597 0.00050962 -0.816567 0.407602 -0.408964 -0.81656 -0.41127 0.405289 -0.802352 0.532554 0.269798 -0.801586 -0.53563 -0.265956 0.315257 0.948961 0.00318926 0.00405309 0.999974 0.00405309 -0.7071 0.00104681 -0.7071 -0.707096 0.00323735 0.707096 -0.426385 0.63897 -0.640186 -0.426385 -0.640185 0.63897 0.706869 0.707466 0.000596255 0.707762 -0.706572 0.00119062 -0.627909 0.259155 0.733834 -0.627863 -0.260975 -0.733228 -0.4472 0.8944 0 -0.4472 -0.8944 0 -0.465856 0.884834 0.010666 0.619594 0.784948 0.000643983 0.620025 -0.784642 2.98023e-08 -0.456441 -0.889717 0.00252976 -0.801853 -0.534569 -0.267284 -0.99999 0 0 -0.99999 0 -0 -0.801853 -0.534569 0.267284 -0.7071 0 -0.7071 -0.7071 0 0.7071 -0.948648 0 0.316216 -0.7071 0 -0.7071 -0 0.99999 0 0 0.99999 0 0.70708 0.70708 0 0.70708 0.70708 0 -0.7071 -0 -0.7071 -0.7071 0 0.7071 -0.7071 0 0.7071 -0.948648 0 -0.316216 0 -0.99999 -0 -0 -0.99999 0 -0 -0.99999 0 0 -0.99999 -0 0.707168 0.707168 0 0.707168 0.707168 0 -0.801853 0.534569 -0.267284 -0.801853 0.534569 0.267284 -0.707168 0 -0.707168 -0.707168 0 0.707168 -0.759299 0.646524 -0.0738335 -0.961287 -0.265884 0.0722294 -0.956445 -0.290479 0.0286335 -0.764839 0.627451 0.145967 -0.662189 0.350704 -0.662189 -0.704142 0.0913725 0.704142 -0.806312 0.514879 0.291433 -0.813684 -0.466214 -0.34747 -0 0.99999 0 0.000454545 0.99999 0.000454545 -0.801889 0.534425 -0.267463 -0.707003 0.0165803 -0.707003 -0.685856 0.243279 0.685856 -0.814169 -0.461241 0.352928 0 -0.99999 -0 0.000692418 -0.99999 0.000692418 -0.991495 -0.0803208 0.10277 -0.956028 0.0575245 -0.287518 -0.993288 -0.08248 -0.0815516 -0.94034 0.0480866 0.336769 -0.994254 0.106885 -1.86265e-09 -0.749298 0.662218 -1.49012e-08 -0.749298 0.662218 7.45058e-09 -0.994254 0.106885 1.86265e-09 0.698117 0.715785 0.0167503 0.691303 -0.722404 0.0151279 0.66562 -0.74611 0.015514 0.66572 0.74611 0.0155264 -0.0385912 -0.0432514 0.998371 -0.427177 -0.0551603 0.902556 -0.382055 -0.0580454 0.922342 0 -0.0469089 0.998899 -0.74151 -0.0579894 0.668342 -0.706051 -0.0544391 0.706051 -0.937892 -0.0460785 0.344042 -0.923034 -0.0432817 0.382341 -0.9983 -0.0431941 -0.0385453 -0.999051 -0.043561 -0 -0.999977 -0 0 -0.92392 0 -0.382755 -0.9239 -0 -0.3827 -1 -0 -0 -0.707064 0 -0.707064 -0.707082 -0.00708938 -0.707082 -0.363203 -0.0234629 -0.931413 -0.382496 -0.0326551 -0.923407 0.0363419 -0.0407366 -0.998494 0 -0.0399878 -0.9992 0.408652 -0.0318766 -0.912131 0.382607 -0.0219897 -0.923677 0.710576 -0.00559765 -0.703513 0.7071 0 -0.7071 0.92392 1.49012e-08 -0.382755 0.9239 0 -0.3827 1.00005 0 0 1 0 0 0.998369 -0.0432735 0.0386109 0.902496 -0.0551638 0.427147 0.922342 -0.0580543 0.382055 0.998738 -0.0502209 0 0.668343 -0.0579874 0.741509 0.706051 -0.0544398 0.706051 0.344028 -0.0460726 0.937827 0.382341 -0.0432806 0.923034 0.698277 -0.71561 0.0175458 0.691222 0.722556 0.0159277 0.791566 0.61062 0.0211148 0.775029 -0.631458 0.0217136 0.927308 0.37356 0.0234412 0.91045 -0.413197 0.0218774 0.999772 -0.0176454 0.0157442 0.789915 -0.612894 0.0165947 0.776799 0.629414 0.0173645 0.927578 -0.373031 0.0240092 0.910224 0.413666 0.0224236 0.999769 0.0152152 0.0135776 -0.802709 0.531086 0.271623 -0.707098 0.707098 0.00253999 -0.707099 -0.707099 0.0013779 -0.801377 -0.536456 -0.264921 0 0.99999 0 0.447199 0.894397 0.00258226 -0.223658 0.974633 0.00354318 -0.00347748 0.999978 0.00347748 -0.826791 -0.214794 -0.519974 -0.827374 0.222097 0.515911 -0.718801 -0.412459 0.559704 -0.718717 0.412456 -0.559703 0.447199 -0.894398 0.00203383 0.00454654 -0.99997 0.00454654 0.00453797 -0.99997 0.00453797 -0.228822 -0.973433 0.00349102 -0.7071 0 -0.7071 -0.707096 -0.00314695 0.707096 -0.707095 -0.00375372 0.707095 -0.707098 -0.0024887 -0.707098 -0.00454371 0.99997 0.00454371 0.317323 0.948271 0.00369919 -0.816552 -0.40404 -0.412513 -0.816564 0.410272 0.406292 -0.802177 -0.533262 0.268915 -0.801279 0.536837 -0.264442 0.31591 -0.948749 0.00101992 0.00048525 -0.99999 0.00048525 -0.707089 -0.00549562 -0.707089 -0.70709 -0.00518718 0.70709 -0.426385 -0.638493 -0.640662 -0.426385 0.640675 0.638479 0.705971 -0.708359 0.00238773 0.708059 0.706273 0.00178543 -0.627932 -0.258246 0.734136 -0.62784 0.261885 -0.732924 -0.447195 -0.89439 -0.00463598 -0.447195 0.89439 -0.00463598 -0.465856 -0.884834 0.0106661 0.619594 -0.784948 0.000643983 0.624742 0.780867 0.00609368 -0.456896 0.889485 0.00189367 0.714112 0.69072 -0.113784 0.667852 -0.736805 -0.1053 0.662069 -0.74213 -0.104295 0.662165 0.742126 -0.104362 -0.66521 -0.745538 -0.0421007 -0.629999 -0.745614 0.217466 -0.0209907 -0.99852 -0.0506749 0 -0.998494 -0.054854 -0.498876 -0.745531 0.441799 -0.0387775 -0.998486 -0.0387775 -0.291908 -0.745609 0.599155 -0.0532485 -0.998363 -0.0220567 -0.172149 -0.734961 0.65586 -0.061806 -0.998088 -0 0.0859295 -0.74334 0.663337 0.215674 -0.745555 0.630684 -0.0506612 -0.998521 0.020985 -0.0562355 -0.998418 -0 0.442012 -0.74554 0.498674 -0.0387777 -0.998485 0.0387777 0.599162 -0.745616 0.291648 -0.0209931 -0.998519 0.0506808 0.665159 -0.745594 0.0402962 -0 -0.998494 0.054854 0.630889 -0.745528 -0.214856 0.0222945 -0.998327 0.0538226 0.500622 -0.745452 -0.439953 0.0411932 -0.998292 0.0411932 0.291793 -0.745613 -0.599206 0.0506612 -0.998521 0.020985 0.0402438 -0.745596 -0.665261 0.0548379 -0.998495 0 -0.217499 -0.745616 -0.629879 0.0506751 -0.99852 -0.0209907 -0.441967 -0.745538 -0.498717 0.040747 -0.998329 -0.040747 -0.597792 -0.745511 -0.294711 0.0225857 -0.998282 -0.0545254 0.714098 -0.690753 -0.113672 0.667959 0.7368 -0.10529 0.82462 0.550403 -0.130149 0.731077 -0.672107 -0.116956 0.95437 0.263032 -0.14138 0.851909 -0.505934 -0.135691 0.977566 -0.157346 -0.140393 0.824709 -0.550184 -0.130514 0.730931 0.672217 -0.11724 0.954324 -0.263958 -0.14043 0.85238 0.505344 -0.134926 0.977494 0.157325 -0.140393 </float_array>
          <technique_common>
            <accessor count="236" offset="0" source="#meshId0-bitangents-array" stride="3">
              <param name="X" type="float" />
              <param name="Y" type="float" />
              <param name="Z" type="float" />
            </accessor>
          </technique_common>
        </source>
        <source id="meshId0-tex0" name="meshId0-tex0">
          <float_array id="meshId0-tex0-array" count="472"> 0.8935 0.8969 0.8764 0.8969 0.8763 0.8732 0.8934 0.8731 0.8936 0.9722 0.8765 0.9723 0.8765 0.9551 0.8936 0.9551 0.6134 0.8974 0.6134 0.8737 0.6224 0.8737 0.6224 0.8974 0.8762 0.7978 0.8933 0.7978 0.8933 0.8149 0.8762 0.8149 0.9688 0.873 0.9689 0.8967 0.9517 0.8967 0.9517 0.873 0.8935 0.9106 0.8764 0.9106 0.7702 0.8971 0.7702 0.8734 0.7839 0.8733 0.7839 0.8971 0.8763 0.8595 0.8934 0.8594 0.9072 0.8731 0.9072 0.8968 0.6778 0.8973 0.6777 0.8736 0.7838 0.8596 0.7839 0.9108 0.6332 0.8737 0.6333 0.8974 0.6035 0.8974 0.6035 0.8737 0.8702 0.8059 0.8662 0.7978 0.8666 0.9723 0.8705 0.9642 0.8028 0.6729 0.8028 0.6481 0.8371 0.6481 0.8371 0.6729 0.6427 0.6729 0.6427 0.6481 0.783 0.6481 0.783 0.6729 0.8028 0.2205 0.8371 0.2205 0.8371 0.3608 0.8028 0.3608 0.9972 0.6481 0.9972 0.6729 0.8569 0.6729 0.8569 0.6481 0.8371 0.833 0.8028 0.833 0.8028 0.6927 0.8371 0.6927 0.8028 0.4945 0.8371 0.4945 0.8371 0.5143 0.8028 0.5143 0.8569 0.5143 0.783 0.5143 0.3437 0.4568 0.3464 0.3519 0.4611 0.3518 0.4644 0.4567 0.0139 0.5064 0.0139 0.1717 0.172 0.1715 0.1693 0.5606 0.1717 0.0139 0.6339 0.0139 0.6336 0.1711 0.7911 0.1687 0.7965 0.5034 0.6377 0.5602 0.636 0.6638 0.1738 0.6638 0.1874 0.1903 0.1751 0.4857 0.619 0.1896 0.6307 0.485 0.0174 0.7989 0.173 0.6827 0.3044 0.6827 0.46 0.7989 0.0829 0.57 0.081 0.6528 0.0638 0.6559 0.0659 0.5662 0.4762 0.7078 0.4763 0.7004 0.522 0.7008 0.5219 0.7081 0.4763 0.6931 0.522 0.6935 0.4764 0.6858 0.5221 0.6861 0.4765 0.6785 0.5221 0.6788 0.4004 0.7371 0.4004 0.7297 0.4461 0.7297 0.4461 0.7371 0.4004 0.7224 0.4461 0.7224 0.4005 0.715 0.4461 0.7152 0.4005 0.7076 0.4462 0.7079 0.4006 0.7003 0.4463 0.7005 0.4007 0.6931 0.4463 0.6931 0.4007 0.6858 0.4464 0.6858 0.4007 0.6785 0.4464 0.6785 0.476 0.7371 0.476 0.7297 0.5217 0.7301 0.5217 0.7374 0.4761 0.7224 0.5218 0.7228 0.4762 0.7151 0.5219 0.7154 0.0467 0.652 0.0486 0.5692 0.0972 0.5801 0.0958 0.6435 0.1066 0.5949 0.1058 0.6292 0.1096 0.6121 0.0324 0.642 0.0339 0.5786 0.023 0.6272 0.0238 0.5929 0.02 0.61 0.2646 0.8916 0.2817 0.8915 0.2818 0.9153 0.2647 0.9153 0.2643 0.8162 0.2814 0.8162 0.2815 0.8333 0.2643 0.8334 0.5446 0.8906 0.5447 0.9143 0.5357 0.9143 0.5356 0.8906 0.2821 0.9906 0.2649 0.9907 0.2649 0.9736 0.282 0.9735 0.1893 0.9156 0.1892 0.8919 0.2063 0.8918 0.2064 0.9156 0.2645 0.8779 0.2817 0.8778 0.3879 0.8911 0.3879 0.9149 0.3742 0.9149 0.3741 0.8912 0.2819 0.929 0.2647 0.929 0.251 0.9154 0.2509 0.8917 0.4803 0.8908 0.4804 0.9145 0.3743 0.9286 0.3741 0.8775 0.5249 0.9143 0.5248 0.8906 0.5545 0.8905 0.5546 0.9142 0.288 0.9825 0.292 0.9906 0.2913 0.8161 0.2874 0.8243 0.8816 0.1712 0.8869 0.1375 0.8942 0.1372 0.8884 0.1737 0.812 0.1227 0.8049 0.1235 0.7998 0.0788 0.8069 0.078 0.7977 0.1243 0.7926 0.0796 0.7906 0.1251 0.7854 0.0804 0.7834 0.1259 0.7783 0.0813 0.898 0.1128 0.8909 0.1137 0.8858 0.069 0.8929 0.0682 0.8837 0.1145 0.8786 0.0698 0.8765 0.1153 0.8714 0.0706 0.8694 0.1161 0.8643 0.0714 0.8622 0.1169 0.8571 0.0722 0.855 0.1178 0.8499 0.0731 0.8479 0.1186 0.8428 0.0739 0.8407 0.1194 0.8356 0.0747 0.8335 0.1202 0.8284 0.0755 0.8264 0.121 0.8213 0.0763 0.8192 0.1218 0.8141 0.0772 0.9009 0.1397 0.8956 0.1734 0.8763 0.1663 0.8804 0.1405 0.8733 0.1598 0.8755 0.1458 0.873 0.1526 0.9062 0.1446 0.9022 0.1704 0.9092 0.1511 0.9071 0.1651 0.9095 0.1583 </float_array>
          <technique_common>
            <accessor count="236" offset="0" source="#meshId0-tex0-array" stride="2">
              <param name="S" type="float" />
              <param name="T" type="float" />
            </accessor>
          </technique_common>
        </source>
        <vertices id="meshId0-vertices">
          <input semantic="POSITION" source="#meshId0-positions" />
        </vertices>
        <polylist count="228" material="defaultMaterial">
          <input offset="0" semantic="VERTEX" source="#meshId0-vertices" />
          <input offset="0" semantic="NORMAL" source="#meshId0-normals" />
          <input offset="0" semantic="TANGENT" source="#meshId0-tangents" />
          <input offset="0" semantic="BINORMAL" source="#meshId0-bitangents" />
          <input offset="0" semantic="TEXCOORD" source="#meshId0-tex0" set="0" />
          <vcount>3 3 3 3 3 3 3 3 3 3 3 3 3 3 3 3 3 3 3 3 3 3 3 3 3 3 3 3 3 3 3 3 3 3 3 3 3 3 3 3 3 3 3 3 3 3 3 3 3 3 3 3 3 3 3 3 3 3 3 3 3 3 3 3 3 3 3 3 3 3 3 3 3 3 3 3 3 3 3 3 3 3 3 3 3 3 3 3 3 3 3 3 3 3 3 3 3 3 3 3 3 3 3 3 3 3 3 3 3 3 3 3 3 3 3 3 3 3 3 3 3 3 3 3 3 3 3 3 3 3 3 3 3 3 3 3 3 3 3 3 3 3 3 3 3 3 3 3 3 3 3 3 3 3 3 3 3 3 3 3 3 3 3 3 3 3 3 3 3 3 3 3 3 3 3 3 3 3 3 3 3 3 3 3 3 3 3 3 3 3 3 3 3 3 3 3 3 3 3 3 3 3 3 3 3 3 3 3 3 3 3 3 3 3 3 3 3 3 3 3 3 3 3 3 3 3 3 3 </vcount>
          <p>3 0 1 1 2 3 7 4 5 5 6 7 11 8 9 9 10 11 15 12 13 13 14 15 19 16 17 17 18 19 0 20 21 21 1 0 25 22 23 23 24 25 2 26 27 27 3 2 3 28 29 29 0 3 22 30 31 31 23 22 32 26 2 2 24 32 24 2 1 1 25 24 25 1 21 21 33 25 7 6 21 21 20 7 35 34 31 31 30 35 15 14 27 27 26 15 19 18 29 29 28 19 8 36 37 37 9 8 39 12 15 15 38 39 10 34 35 35 11 10 41 6 5 5 40 41 45 42 43 43 44 45 49 46 47 47 48 49 53 50 51 51 52 53 57 54 55 55 56 57 61 58 59 59 60 61 42 49 48 48 43 42 65 62 63 63 64 65 44 57 56 56 45 44 45 61 60 60 42 45 62 53 52 52 63 62 66 57 44 44 64 66 64 44 43 43 65 64 65 43 48 48 67 65 71 68 69 69 70 71 75 72 73 73 74 75 74 76 77 77 78 74 78 79 80 80 81 78 81 82 83 83 75 81 85 75 74 74 84 85 84 74 78 78 86 84 86 78 81 81 87 86 87 81 75 75 85 87 84 86 70 70 69 84 91 88 89 89 90 91 85 84 69 69 68 85 86 87 71 71 70 86 95 92 93 93 94 95 99 96 97 97 98 99 98 97 100 100 101 98 101 100 102 102 103 101 103 102 104 104 105 103 109 106 107 107 108 109 108 107 110 110 111 108 111 110 112 112 113 111 113 112 114 114 115 113 115 114 116 116 117 115 117 116 118 118 119 117 119 118 120 120 121 119 121 120 122 122 123 121 127 124 125 125 126 127 126 125 128 128 129 126 129 128 130 130 131 129 131 130 96 96 99 131 95 94 132 132 133 95 93 92 134 134 135 93 135 134 136 136 137 135 136 138 137 133 132 139 139 140 133 140 139 141 141 142 140 141 143 142 147 144 145 145 146 147 151 148 149 149 150 151 155 152 153 153 154 155 159 156 157 157 158 159 163 160 161 161 162 163 144 164 165 165 145 144 169 166 167 167 168 169 146 170 171 171 147 146 147 172 173 173 144 147 166 174 175 175 167 166 176 170 146 146 168 176 168 146 145 145 169 168 169 145 165 165 177 169 151 150 165 165 164 151 179 178 175 175 174 179 159 158 171 171 170 159 163 162 173 173 172 163 152 180 181 181 153 152 183 156 159 159 182 183 154 178 179 179 155 154 185 150 149 149 184 185 189 186 187 187 188 189 193 190 191 191 192 193 192 191 194 194 195 192 195 194 196 196 197 195 197 196 198 198 199 197 203 200 201 201 202 203 202 201 204 204 205 202 205 204 206 206 207 205 207 206 208 208 209 207 209 208 210 210 211 209 211 210 212 212 213 211 213 212 214 214 215 213 215 214 216 216 217 215 217 216 218 218 219 217 219 218 220 220 221 219 221 220 222 222 223 221 223 222 190 190 193 223 189 188 224 224 225 189 187 186 226 226 227 187 227 226 228 228 229 227 228 230 229 225 224 231 231 232 225 232 231 233 233 234 232 233 235 234 </p>
        </polylist>
      </mesh>
    </geometry>
  </library_geometries>
  <library_visual_scenes>
    <visual_scene id="low%20sink.obj" name="low%20sink.obj">
      <node id="low" name="low">
        <matrix>1 0 0 0 0 1 0 0 0 0 1 0 0 0 0 1</matrix>
      </node>
      <node id="g low" name="g low">
        <matrix>1 0 0 0 0 1 0 0 0 0 1 0 0 0 0 1</matrix>
        <instance_geometry url="#meshId0">
          <bind_material>
            <technique_common>
              <instance_material symbol="defaultMaterial" target="#Material__25" />
            </technique_common>
          </bind_material>
        </instance_geometry>
      </node>
    </visual_scene>
  </library_visual_scenes>
  <scene>
    <instance_visual_scene url="#low%20sink.obj" />
  </scene>
</COLLADA>
